<mxfile host="app.diagrams.net" modified="2023-04-09T10:18:05.392Z" agent="Mozilla/5.0 (Windows NT 10.0; Win64; x64) AppleWebKit/537.36 (KHTML, like Gecko) Chrome/111.0.0.0 Safari/537.36" etag="54mZ7Kr-kvt2LYHv--uX" version="21.1.5" type="device">
  <diagram name="Page-1" id="VCLD3Zcy_ebrEHsD4vXP">
    <mxGraphModel dx="1647" dy="868" grid="1" gridSize="10" guides="1" tooltips="1" connect="1" arrows="1" fold="1" page="1" pageScale="1" pageWidth="850" pageHeight="1100" math="0" shadow="0">
      <root>
        <mxCell id="0" />
        <mxCell id="1" parent="0" />
        <mxCell id="ErY5aZhJWDlkeKvdTaK7-1" value="&lt;font style=&quot;font-size: 22px;&quot;&gt;LOGIN&lt;/font&gt;" style="swimlane;whiteSpace=wrap;html=1;startSize=30;fillColor=#ffe6cc;strokeColor=#d79b00;" vertex="1" parent="1">
          <mxGeometry x="10" y="190" width="200" height="240" as="geometry" />
        </mxCell>
        <mxCell id="ErY5aZhJWDlkeKvdTaK7-21" value="&lt;font style=&quot;font-size: 22px;&quot;&gt;NIP*&lt;br&gt;Password&lt;br&gt;lupa pasword&lt;br&gt;&lt;/font&gt;" style="text;html=1;align=center;verticalAlign=middle;resizable=0;points=[];autosize=1;strokeColor=none;fillColor=none;" vertex="1" parent="ErY5aZhJWDlkeKvdTaK7-1">
          <mxGeometry x="25" y="75" width="150" height="90" as="geometry" />
        </mxCell>
        <mxCell id="ErY5aZhJWDlkeKvdTaK7-29" value="" style="endArrow=none;html=1;rounded=0;" edge="1" parent="ErY5aZhJWDlkeKvdTaK7-1">
          <mxGeometry width="50" height="50" relative="1" as="geometry">
            <mxPoint x="280" y="90" as="sourcePoint" />
            <mxPoint x="280" y="-10" as="targetPoint" />
          </mxGeometry>
        </mxCell>
        <mxCell id="ErY5aZhJWDlkeKvdTaK7-6" value="&lt;span style=&quot;font-size: 22px;&quot;&gt;PEGAWAI&lt;/span&gt;" style="swimlane;whiteSpace=wrap;html=1;startSize=40;fillColor=#ffe6cc;strokeColor=#d79b00;" vertex="1" parent="1">
          <mxGeometry x="350" y="40" width="250" height="460" as="geometry" />
        </mxCell>
        <mxCell id="ErY5aZhJWDlkeKvdTaK7-9" value="&lt;font style=&quot;font-size: 22px;&quot;&gt;NIP*&lt;br&gt;nama&lt;br&gt;jenis_kelamin&lt;br&gt;alamat&lt;br&gt;no_telpon&lt;br&gt;jabatan&lt;br&gt;email&lt;br&gt;foto&lt;br&gt;&lt;/font&gt;" style="text;html=1;align=center;verticalAlign=middle;resizable=0;points=[];autosize=1;strokeColor=none;fillColor=none;" vertex="1" parent="ErY5aZhJWDlkeKvdTaK7-6">
          <mxGeometry x="45" y="130" width="160" height="220" as="geometry" />
        </mxCell>
        <mxCell id="ErY5aZhJWDlkeKvdTaK7-7" value="&lt;font style=&quot;font-size: 22px;&quot;&gt;KETERANGAN&lt;/font&gt;" style="swimlane;whiteSpace=wrap;html=1;startSize=40;fillColor=#ffe6cc;strokeColor=#d79b00;" vertex="1" parent="1">
          <mxGeometry x="660" y="450" width="200" height="260" as="geometry" />
        </mxCell>
        <mxCell id="ErY5aZhJWDlkeKvdTaK7-12" value="&lt;font style=&quot;font-size: 22px;&quot;&gt;NIP*&lt;br&gt;nama&lt;br&gt;keterangan&lt;br&gt;alasan&amp;nbsp;&lt;br&gt;waktu masuk&lt;br&gt;waktu keluar&lt;br&gt;&lt;/font&gt;" style="text;html=1;align=center;verticalAlign=middle;resizable=0;points=[];autosize=1;strokeColor=none;fillColor=none;" vertex="1" parent="ErY5aZhJWDlkeKvdTaK7-7">
          <mxGeometry x="25" y="65" width="150" height="170" as="geometry" />
        </mxCell>
        <mxCell id="ErY5aZhJWDlkeKvdTaK7-8" value="&lt;font style=&quot;font-size: 22px;&quot;&gt;ABSENSI&lt;/font&gt;" style="swimlane;whiteSpace=wrap;html=1;startSize=30;fillColor=#ffe6cc;strokeColor=#d79b00;" vertex="1" parent="1">
          <mxGeometry x="770" y="180" width="200" height="200" as="geometry" />
        </mxCell>
        <mxCell id="ErY5aZhJWDlkeKvdTaK7-11" value="&lt;font style=&quot;font-size: 22px;&quot;&gt;NIP*&lt;br&gt;nama&lt;br&gt;waktu masuk&lt;br&gt;waktu keluar&lt;br&gt;&lt;/font&gt;" style="text;html=1;align=center;verticalAlign=middle;resizable=0;points=[];autosize=1;strokeColor=none;fillColor=none;" vertex="1" parent="ErY5aZhJWDlkeKvdTaK7-8">
          <mxGeometry x="25" y="50" width="150" height="120" as="geometry" />
        </mxCell>
        <mxCell id="ErY5aZhJWDlkeKvdTaK7-26" value="" style="endArrow=none;html=1;rounded=0;" edge="1" parent="1">
          <mxGeometry width="50" height="50" relative="1" as="geometry">
            <mxPoint x="210" y="280" as="sourcePoint" />
            <mxPoint x="290" y="280" as="targetPoint" />
          </mxGeometry>
        </mxCell>
        <mxCell id="ErY5aZhJWDlkeKvdTaK7-30" value="" style="endArrow=classic;html=1;rounded=0;" edge="1" parent="1">
          <mxGeometry width="50" height="50" relative="1" as="geometry">
            <mxPoint x="290" y="180" as="sourcePoint" />
            <mxPoint x="350" y="180" as="targetPoint" />
          </mxGeometry>
        </mxCell>
        <mxCell id="ErY5aZhJWDlkeKvdTaK7-31" value="" style="endArrow=none;html=1;rounded=0;" edge="1" parent="1">
          <mxGeometry width="50" height="50" relative="1" as="geometry">
            <mxPoint x="600" y="180" as="sourcePoint" />
            <mxPoint x="700" y="180" as="targetPoint" />
          </mxGeometry>
        </mxCell>
        <mxCell id="ErY5aZhJWDlkeKvdTaK7-33" value="" style="endArrow=none;html=1;rounded=0;" edge="1" parent="1">
          <mxGeometry width="50" height="50" relative="1" as="geometry">
            <mxPoint x="700" y="250" as="sourcePoint" />
            <mxPoint x="700" y="180" as="targetPoint" />
          </mxGeometry>
        </mxCell>
        <mxCell id="ErY5aZhJWDlkeKvdTaK7-34" value="" style="endArrow=classic;html=1;rounded=0;" edge="1" parent="1">
          <mxGeometry width="50" height="50" relative="1" as="geometry">
            <mxPoint x="700" y="250" as="sourcePoint" />
            <mxPoint x="770" y="250" as="targetPoint" />
          </mxGeometry>
        </mxCell>
        <mxCell id="ErY5aZhJWDlkeKvdTaK7-35" value="" style="endArrow=none;html=1;rounded=0;" edge="1" parent="1">
          <mxGeometry width="50" height="50" relative="1" as="geometry">
            <mxPoint x="970" y="250" as="sourcePoint" />
            <mxPoint x="1090" y="250" as="targetPoint" />
          </mxGeometry>
        </mxCell>
        <mxCell id="ErY5aZhJWDlkeKvdTaK7-36" value="" style="endArrow=none;html=1;rounded=0;" edge="1" parent="1">
          <mxGeometry width="50" height="50" relative="1" as="geometry">
            <mxPoint x="1080" y="530" as="sourcePoint" />
            <mxPoint x="1090" y="250" as="targetPoint" />
          </mxGeometry>
        </mxCell>
        <mxCell id="ErY5aZhJWDlkeKvdTaK7-37" value="" style="endArrow=classic;html=1;rounded=0;" edge="1" parent="1">
          <mxGeometry width="50" height="50" relative="1" as="geometry">
            <mxPoint x="1080" y="530" as="sourcePoint" />
            <mxPoint x="860" y="530" as="targetPoint" />
          </mxGeometry>
        </mxCell>
      </root>
    </mxGraphModel>
  </diagram>
</mxfile>
